<svg width="206" height="178" viewBox="0 0 206 178" fill="none" xmlns="http://www.w3.org/2000/svg">
<path d="M13 48.2857C13 36.2845 13 30.284 15.1799 25.7002C17.0973 21.6681 20.1569 18.39 23.9202 16.3356C28.1984 14 33.799 14 45 14H79.7452C84.637 14 87.083 14 89.385 14.5921C91.425 15.117 93.376 15.9828 95.166 17.1577C97.184 18.4829 98.914 20.3359 102.373 24.0421L103.627 25.3865C107.086 29.0927 108.816 30.9457 110.834 32.2709C112.624 33.4458 114.575 34.3116 116.615 34.8365C118.917 35.4286 121.363 35.4286 126.255 35.4286H161C172.201 35.4286 177.802 35.4286 182.08 37.7642C185.843 39.8185 188.903 43.0967 190.82 47.1288C193 51.7126 193 57.7132 193 69.7143V129.714C193 141.715 193 147.716 190.82 152.3C188.903 156.332 185.843 159.61 182.08 161.664C177.802 164 172.201 164 161 164H45C33.7989 164 28.1984 164 23.9202 161.664C20.1569 159.61 17.0973 156.332 15.1799 152.3C13 147.716 13 141.715 13 129.714V48.2857Z" stroke="#474747" stroke-width="10.4167" stroke-linecap="round" stroke-linejoin="round"/>
</svg>
