<svg width="248" height="98" viewBox="0 0 248 98" fill="none" xmlns="http://www.w3.org/2000/svg">
<g clip-path="url(#clip0_601_71478)">
<path d="M248 0H0V98H248V0Z" fill="#E30613"/>
<path d="M53.8918 54.6628H77.2447V58.5941H73.5521V61.4021L82.3344 58.5941H78.3425V54.6628H105.388V58.4069H98.8013L90.2186 61.4021L98.901 67.6733H105.887V71.3238H77.8435V67.5797H80.8375L76.9453 64.9589L73.652 65.9885V67.6733H76.5461V71.3238H53.792V67.6733H61.1771V58.5005H53.8918V54.6628Z" fill="white"/>
<path d="M186.724 59.6237C186.724 62.9933 181.734 64.5845 176.444 64.5845H165.467V67.5797H173.151V71.3238H146.006V67.5797H153.092V58.5941H146.006V54.6628C146.006 54.6628 165.666 54.6628 178.141 54.6628C182.233 54.7564 186.724 55.9733 186.724 59.6237ZM172.952 58.5941H165.666V61.2149H173.051C173.75 61.2149 174.349 60.6533 174.349 59.9045C174.349 59.1557 173.85 58.5941 172.952 58.5941Z" fill="white"/>
<path d="M187.223 58.5005V54.6628H225.646V62.7125H217.063V58.5005H206.983V61.3085H214.069V64.9589H206.983V67.7669H217.163V63.5549H225.646V71.3238H187.023V67.7669H194.608V58.5005H187.223Z" fill="white"/>
<path d="M35.5284 57.7517C33.2331 57.7517 29.6403 57.7517 29.6403 58.7813C29.6403 59.7173 32.0355 59.6237 35.9276 59.8109C38.8218 59.9045 42.8137 60.2789 45.3087 60.6533C48.6021 61.1213 53.3924 61.8702 53.2926 66.0822C53.2926 70.6686 44.8097 71.979 38.223 72.0726C33.4327 72.1662 29.2411 71.7918 26.0475 70.6686C25.8479 70.575 25.5485 71.1366 25.4487 71.7918H17.4648V66.4566H25.6483C25.6483 67.1118 28.0435 68.6094 34.5304 68.703C38.4226 68.703 40.718 68.3286 41.1172 67.5798C41.716 66.0822 32.0355 66.9246 25.1494 65.895C21.5566 65.3334 17.6644 63.9294 17.7642 60.4661C17.864 56.2541 24.351 54.0077 37.5244 54.7565C39.8198 54.8501 41.716 55.5989 42.0153 55.5989C42.7139 55.5989 42.7139 54.8501 42.9135 54.6629H51.596V59.9045C51.596 59.9045 44.8097 59.9045 43.0133 59.9045C43.0133 59.9981 41.8158 57.8453 35.5284 57.7517Z" fill="white"/>
<path d="M98.8008 62.9933C98.8008 62.8061 98.9006 62.5253 99.2 62.5253C100.996 62.3381 103.092 62.2445 105.188 62.1509C107.683 53.2588 124.349 54.2884 124.449 54.0076C124.549 52.51 124.748 50.638 124.948 48.5788C125.048 48.2043 125.247 48.2043 125.547 48.2043C125.647 48.2043 125.946 48.2979 126.046 48.5788C126.245 50.638 126.445 52.51 126.545 54.0076C126.545 54.2884 142.912 53.0716 145.407 61.9637C147.602 62.0573 149.598 62.1509 151.395 62.3381C151.694 62.3381 151.794 62.8061 151.794 62.8061C151.794 62.8997 151.694 63.2741 151.395 63.2741C149.598 63.4613 147.503 63.5549 145.407 63.6485C142.912 72.5405 126.545 71.4173 126.545 71.6045C126.445 73.1022 126.245 74.9742 126.046 77.0334C125.946 77.3142 125.647 77.4078 125.547 77.4078C125.347 77.4078 125.048 77.4078 124.948 77.0334C124.748 74.9742 124.549 73.1022 124.449 71.6045C124.449 71.3237 107.783 72.5405 105.288 63.7421C103.092 63.6485 101.096 63.5549 99.2998 63.3677C98.8008 63.4613 98.8008 63.1805 98.8008 62.9933ZM124.15 57.8452C119.759 57.8452 118.062 60.2788 118.062 61.6829C120.158 61.6829 123.95 61.4957 123.95 61.4957C123.95 61.4957 124.15 59.4364 124.15 57.8452ZM126.744 57.8452C126.744 59.4364 126.944 61.4021 126.944 61.4021C126.944 61.4021 130.736 61.5893 132.832 61.5893C132.832 60.2788 131.036 57.8452 126.744 57.8452ZM124.15 68.1413C124.15 66.5501 123.95 64.5845 123.95 64.5845C123.95 64.5845 120.158 64.3973 118.062 64.3973C117.962 65.7077 119.759 68.1413 124.15 68.1413ZM126.744 68.1413C131.136 68.1413 132.832 65.7077 132.832 64.3037C130.736 64.3037 126.944 64.4909 126.944 64.4909C126.944 64.4909 126.744 66.6437 126.744 68.1413Z" fill="white"/>
<path d="M226.942 54.7565C226.942 53.3525 228.24 52.2292 229.737 52.2292C231.234 52.2292 232.531 53.3525 232.531 54.7565C232.531 56.1605 231.234 57.2837 229.737 57.2837C228.24 57.2837 226.942 56.1605 226.942 54.7565ZM227.342 54.7565C227.342 55.9733 228.439 57.0029 229.737 57.0029C231.034 57.0029 232.132 55.9733 232.132 54.7565C232.132 53.5397 231.034 52.51 229.737 52.51C228.439 52.51 227.342 53.5397 227.342 54.7565Z" fill="white"/>
<path d="M229.138 54.4756V53.6332H230.036C230.435 53.6332 230.535 53.914 230.535 54.0076C230.535 54.2884 230.336 54.4756 230.036 54.4756H229.138ZM228.439 56.2541H229.138V55.0372H229.837C230.336 55.0372 230.435 55.2244 230.435 55.5989C230.435 55.8797 230.435 56.0669 230.535 56.2541H231.334V56.1605C231.134 56.0669 231.134 55.9733 231.134 55.5052C231.134 54.9436 230.934 54.85 230.735 54.6628C231.034 54.5692 231.234 54.2884 231.234 53.914C231.234 53.6332 231.034 52.978 230.136 52.978H228.439V56.2541Z" fill="white"/>
</g>
<defs>
<clipPath id="clip0_601_71478">
<rect width="248" height="98" fill="white"/>
</clipPath>
</defs>
</svg>
